<svg xmlns="http://www.w3.org/2000/svg" version="1.1" xmlns:xlink="http://www.w3.org/1999/xlink" viewBox="0 0 200 200"><rect width="200" height="200" fill="url('#gradient')"></rect><defs><linearGradient id="gradient" gradientTransform="rotate(45 0.5 0.5)"><stop offset="0%" stop-color="#6194ec"></stop><stop offset="100%" stop-color="#090759"></stop></linearGradient></defs><g><g fill="#e8dede" transform="matrix(3.342157751586582,0,0,3.342157751586582,6.416652430454818,124.55178212332704)" stroke="#0a42b2" stroke-width="0.2"><path d="M1.07-14.22L5.58-14.22L8.75-4.33L11.91-14.22L16.43-14.22L16.43 0L12.99 0L12.99-3.32L13.32-10.12L9.88 0L7.62 0L4.17-10.13L4.50-3.32L4.50 0L1.07 0L1.07-14.22ZM18.05-4.82L18.04-5.38Q18.04-6.96 18.65-8.20Q19.27-9.43 20.42-10.10Q21.57-10.76 23.13-10.76L23.13-10.76Q25.50-10.76 26.87-9.29Q28.23-7.82 28.23-5.29L28.23-5.29L28.23-5.18Q28.23-2.71 26.86-1.25Q25.49 0.20 23.14 0.20L23.14 0.20Q20.89 0.20 19.52-1.16Q18.15-2.51 18.05-4.82L18.05-4.82ZM21.34-5.77L21.33-5.18Q21.33-3.71 21.79-3.03Q22.25-2.34 23.14-2.34L23.14-2.34Q24.90-2.34 24.94-5.05L24.94-5.05L24.94-5.38Q24.94-8.22 23.13-8.22L23.13-8.22Q21.47-8.22 21.34-5.77L21.34-5.77ZM32.11-10.57L33.75-3.92L35.42-10.57L38.89-10.57L35.44 0L32.08 0L28.63-10.57L32.11-10.57ZM43.34-10.57L43.34 0L40.04 0L40.04-10.57L43.34-10.57ZM39.84-13.29L39.84-13.29Q39.84-13.99 40.35-14.44Q40.86-14.89 41.67-14.89Q42.48-14.89 42.99-14.44Q43.50-13.99 43.50-13.29Q43.50-12.59 42.99-12.14Q42.48-11.69 41.67-11.69Q40.86-11.69 40.35-12.14Q39.84-12.59 39.84-13.29ZM50.48 0.20L50.48 0.20Q48.05 0.20 46.54-1.25Q45.04-2.71 45.04-5.03L45.04-5.03L45.04-5.30Q45.04-6.92 45.64-8.16Q46.24-9.40 47.39-10.08Q48.54-10.76 50.13-10.76L50.13-10.76Q52.35-10.76 53.64-9.38Q54.93-8.00 54.93-5.53L54.93-5.53L54.93-4.25L48.39-4.25Q48.56-3.36 49.16-2.85Q49.76-2.34 50.70-2.34L50.70-2.34Q52.27-2.34 53.14-3.44L53.14-3.44L54.65-1.66Q54.03-0.81 52.91-0.31Q51.78 0.20 50.48 0.20ZM50.11-8.22L50.11-8.22Q48.66-8.22 48.39-6.31L48.39-6.31L51.71-6.31L51.71-6.56Q51.73-7.35 51.31-7.79Q50.89-8.22 50.11-8.22Z"></path></g></g></svg>